<?xml version="1.0" standalone="no"?>
<!DOCTYPE svg PUBLIC "-//W3C//DTD SVG 20010904//EN"
 "http://www.w3.org/TR/2001/REC-SVG-20010904/DTD/svg10.dtd">
<svg version="1.0" xmlns="http://www.w3.org/2000/svg"
 width="16.000000pt" height="16.000000pt" viewBox="0 0 16.000000 16.000000"
 preserveAspectRatio="xMidYMid meet">

<g transform="translate(0.000000,16.000000) scale(0.100000,-0.100000)"
fill="#000000" stroke="none">
<path d="M80 150 c0 -5 5 -10 10 -10 17 0 50 -39 50 -60 0 -26 -34 -60 -60
-60 -33 0 -63 38 -56 71 6 31 -8 49 -18 23 -21 -54 18 -114 74 -114 70 0 105
86 55 135 -24 25 -55 33 -55 15z"/>
<path d="M46 101 c-7 -11 24 -31 48 -31 9 0 16 5 16 10 0 6 -8 10 -18 10 -10
0 -23 5 -29 11 -7 7 -13 7 -17 0z"/>
</g>
</svg>
